<svg xmlns="http://www.w3.org/2000/svg" viewBox="0 0 280 52" width="280" height="52">
  <defs>
    <style>
      .rocket-body-l { fill: #C9A84C; }
      .text-affiliate-l { fill: #1A1A1A; font-family: 'Inter', 'Helvetica Neue', Arial, sans-serif; font-weight: 700; font-size: 18px; letter-spacing: -0.3px; }
      .text-launchpad-l { fill: #C9A84C; font-family: 'Inter', 'Helvetica Neue', Arial, sans-serif; font-weight: 700; font-size: 18px; letter-spacing: -0.3px; }
    </style>
  </defs>
  <!-- Rocket icon: geometric, pointing up-right -->
  <g transform="translate(4, 6)">
    <path d="M20 2 C20 2, 30 4, 34 14 L30 18 L16 18 L12 14 C16 4, 20 2, 20 2Z" class="rocket-body-l"/>
    <path d="M20 2 L23 8 L17 8 Z" fill="#E5C46A"/>
    <path d="M12 14 L8 20 L14 18 Z" class="rocket-body-l"/>
    <path d="M30 18 L32 20 L28 14 Z" class="rocket-body-l"/>
    <ellipse cx="23" cy="20" rx="3" ry="1.5" fill="#E5C46A" opacity="0.8"/>
    <ellipse cx="19" cy="20" rx="3" ry="1.5" fill="#E5C46A" opacity="0.8"/>
    <path d="M18 19 C18 19, 16 23, 21 22 C21 22, 26 24, 24 19 Z" fill="#C9A84C" opacity="0.5"/>
    <circle cx="21" cy="13" r="3" fill="#F5F5F0" opacity="0.6"/>
    <circle cx="21" cy="13" r="2" fill="#E5C46A" opacity="0.5"/>
    <path d="M36 8 L39 4 L42 8 M39 4 L39 14" stroke="#C9A84C" stroke-width="1.5" fill="none" stroke-linecap="round" stroke-linejoin="round" opacity="0.6"/>
  </g>
  <text x="52" y="33" class="text-affiliate-l">Affiliate</text>
  <text x="142" y="33" class="text-launchpad-l">Launchpad</text>
</svg>
